<svg width="44" height="44" viewBox="0 0 44 44" xmlns="http://www.w3.org/2000/svg" xmlns:xlink="http://www.w3.org/1999/xlink">
    <defs>
        <linearGradient x1="72.31%" y1="37.581%" x2="25.917%" y2="64.862%" id="a">
            <stop stop-color="#D4CFFF" offset="0%"/>
            <stop stop-color="#B9BDF9" offset="100%"/>
        </linearGradient>
        <linearGradient x1="38.205%" y1="26.505%" x2="96.905%" y2="77.622%" id="d">
            <stop stop-color="#B5B6FD" offset="0%"/>
            <stop stop-color="#EAE9FF" offset="100%"/>
        </linearGradient>
        <linearGradient x1="12%" y1="18.257%" x2="91.527%" y2="67.647%" id="e">
            <stop stop-color="#DFD6FF" offset="0%"/>
            <stop stop-color="#F6E6FF" offset="76.822%"/>
            <stop stop-color="#CCCDFF" offset="100%"/>
        </linearGradient>
        <linearGradient x1="30.483%" y1="103.696%" x2="58.35%" y2="55.108%" id="h">
            <stop stop-color="#CFCAFF" offset="0%"/>
            <stop stop-color="#FFF" offset="100%"/>
            <stop stop-color="#FFF" offset="100%"/>
        </linearGradient>
        <filter x="-11.2%" y="-11.2%" width="122.5%" height="122.5%" filterUnits="objectBoundingBox" id="c">
            <feGaussianBlur stdDeviation="3" in="SourceAlpha" result="shadowBlurInner1"/>
            <feOffset dx="3" in="shadowBlurInner1" result="shadowOffsetInner1"/>
            <feComposite in="shadowOffsetInner1" in2="SourceAlpha" operator="arithmetic" k2="-1" k3="1" result="shadowInnerInner1"/>
            <feColorMatrix values="0 0 0 0 0.665561294 0 0 0 0 0.68902774 0 0 0 0 0.76588064 0 0 0 0.5 0" in="shadowInnerInner1"/>
        </filter>
        <filter x="-25.9%" y="-18.6%" width="151.7%" height="137.2%" filterUnits="objectBoundingBox" id="f">
            <feOffset in="SourceAlpha" result="shadowOffsetOuter1"/>
            <feGaussianBlur stdDeviation="1.5" in="shadowOffsetOuter1" result="shadowBlurOuter1"/>
            <feColorMatrix values="0 0 0 0 0.515085615 0 0 0 0 0.512202925 0 0 0 0 0.935591103 0 0 0 0.5 0" in="shadowBlurOuter1"/>
        </filter>
        <filter x="-40.5%" y="-28.9%" width="181.1%" height="157.9%" filterUnits="objectBoundingBox" id="i">
            <feOffset in="SourceAlpha" result="shadowOffsetOuter1"/>
            <feGaussianBlur stdDeviation="1" in="shadowOffsetOuter1" result="shadowBlurOuter1"/>
            <feColorMatrix values="0 0 0 0 0.532228079 0 0 0 0 0.478354512 0 0 0 0 0.915832077 0 0 0 0.5 0" in="shadowBlurOuter1"/>
        </filter>
        <path d="M7.762 1.051C6.47 2.191 6.275 3.807 6.42 5.192l.02.172.023.17.025.166.029.163.03.159.033.155.052.225.035.144.055.207.074.257.073.232.083.252.156.444.034.116.016.058.028.119c.233 1.05-.023 2.216-1.374 2.114-.678-.052-1.083-.893-1.232-1.446-.252-.935-1.615-1.184-2.276-.423C-.928 12.2-1.27 19.416 4.611 23.062c3.082 1.91 9.536 2.029 12.305-4.752.922-2.571.425-4.775-.77-6.935l-.132-.236a16.511 16.511 0 0 0-.21-.353l-.146-.235-.15-.235-.156-.235a23.13 23.13 0 0 0-.08-.118l-.16-.235-.167-.236-.17-.236-.173-.237-.177-.237-.18-.238-.183-.239-.28-.36-.285-.362-.29-.364-.996-1.239c-1.515-1.888-1.524-3.372-1.076-4.432.387-.915-.606-1.825-1.64-1.469-.67.232-1.207.534-1.632.886l-.1.086z" id="g"/>
        <path d="M7.73 13.575c-.556.49-1.677 2.326-1.957 2.757-1.208 1.864-1.536 4.702.991 6.268 1.325.822 4.099.872 5.289-2.042.396-1.105.182-2.052-.331-2.98l-.057-.101-.09-.152-.063-.101a8.515 8.515 0 0 0-.065-.101l-.066-.101a9.937 9.937 0 0 0-.034-.05l-.07-.102-.071-.101-.073-.102-.075-.101-.076-.102-.077-.103-.079-.102-.12-.155-.123-.156-.125-.156-.427-.533c-.651-.81-.435-1.446-.434-1.966 0-.519-.524-.675-.967-.522-.193.067-.493.335-.9.804z" id="j"/>
        <circle id="b" cx="20" cy="20" r="20"/>
    </defs>
    <g fill="none" fill-rule="evenodd">
        <g transform="rotate(-90 22 20)">
            <use fill="url(#a)" xlink:href="#b"/>
            <use fill="#000" filter="url(#c)" xlink:href="#b"/>
        </g>
        <path d="M20 0c11.046 0 20 8.954 20 20s-8.954 20-20 20S0 31.046 0 20 8.954 0 20 0zm0 4C11.163 4 4 11.163 4 20s7.163 16 16 16 16-7.163 16-16S28.837 4 20 4z" fill="url(#d)" fill-rule="nonzero" transform="translate(2 2)"/>
        <path d="M20 0c11.046 0 20 8.954 20 20s-8.954 20-20 20S0 31.046 0 20 8.954 0 20 0zm0 3C10.611 3 3 10.611 3 20s7.611 17 17 17 17-7.611 17-17S29.389 3 20 3z" fill="url(#e)" fill-rule="nonzero" transform="translate(2 2)"/>
        <g transform="matrix(-1 0 0 1 30.697 9.905)">
            <use fill="#000" filter="url(#f)" xlink:href="#g"/>
            <use fill="url(#h)" xlink:href="#g"/>
        </g>
        <g transform="translate(13.582 9.905)">
            <use fill="#000" filter="url(#i)" xlink:href="#j"/>
            <use fill="#FFF" xlink:href="#j"/>
        </g>
    </g>
</svg>
