<svg width="24" height="24" viewBox="0 0 24 24" xmlns="http://www.w3.org/2000/svg">
    <g fill="none" fill-rule="evenodd">
        <path d="M16.5 4.5A3.5 3.5 0 0 1 20 8v8a3.5 3.5 0 0 1-3.5 3.5h-8a3.5 3.5 0 0 1-3.464-3H3.5V15H5V9.5H3.5V8H5a3.5 3.5 0 0 1 3.5-3.5zm0 1.5h-8a2 2 0 0 0-2 2v8a2 2 0 0 0 2 2h8a2 2 0 0 0 2-2V8a2 2 0 0 0-2-2z" fill="#999" fill-rule="nonzero"/>
        <path d="M16.5 7a1 1 0 0 1 1 1v8a1 1 0 0 1-1 1h-8a1 1 0 0 1-1-1V8a1 1 0 0 1 1-1h8zm-5.44 2.854a.5.5 0 1 0-.706.707l.398.398a1.99 1.99 0 0 0-.277 1.016c0 .37.1.718.276 1.015l-.397.4a.5.5 0 1 0 .707.706l.398-.398a1.99 1.99 0 0 0 1.016.277c.37 0 .718-.101 1.015-.277l.4.398a.5.5 0 0 0 .706-.707l-.398-.399a1.99 1.99 0 0 0 .277-1.015 1.99 1.99 0 0 0-.277-1.016l.398-.398a.5.5 0 0 0-.707-.707l-.399.397a1.99 1.99 0 0 0-1.015-.276 1.99 1.99 0 0 0-1.016.277zm1.415 1.12a1 1 0 1 1 0 2 1 1 0 0 1 0-2z" fill="#666"/>
    </g>
</svg>
