<svg width="24" height="24" viewBox="0 0 24 24" xmlns="http://www.w3.org/2000/svg">
    <g fill="#FFF" fill-rule="evenodd">
        <path d="M12.75 15.954v1.69c1.15-1.458 3.348-2.059 5.285-1.341l.684.255a.433.433 0 0 1 .248.22c.045.099.044.21-.004.308l-.291.599C17.987 19.089 16.408 20 14.662 20a4.85 4.85 0 0 1-1.697-.303l-.215-.081v.634a.75.75 0 1 1-1.5 0v-.633l-.215.08c-.537.2-1.114.303-1.697.303-1.747 0-3.325-.91-4.01-2.315l-.291-.599a.357.357 0 0 1-.004-.308.435.435 0 0 1 .248-.22l.684-.255c1.937-.718 4.136-.116 5.286 1.342v-1.679a7.084 7.084 0 0 0 1.5-.012z"/>
        <path d="M11.941 3a6 6 0 1 1 0 12 6 6 0 0 1 0-12zm-1.38 3.854a.5.5 0 1 0-.707.707l.398.398a1.99 1.99 0 0 0-.277 1.016c0 .37.1.718.276 1.015l-.397.4a.5.5 0 1 0 .707.706l.398-.398a1.99 1.99 0 0 0 1.016.277c.37 0 .718-.101 1.015-.277l.4.398a.5.5 0 0 0 .706-.707l-.398-.399a1.99 1.99 0 0 0 .277-1.015 1.99 1.99 0 0 0-.277-1.016l.398-.398a.5.5 0 0 0-.707-.707l-.399.397a1.99 1.99 0 0 0-1.015-.276 1.99 1.99 0 0 0-1.016.277zm1.414 1.12a1 1 0 1 1 0 2 1 1 0 0 1 0-2z" fill-rule="nonzero"/>
    </g>
</svg>
