<svg width="24" height="24" viewBox="0 0 24 24" xmlns="http://www.w3.org/2000/svg">
    <path d="m19.963 13.168-.363-.212a1.38 1.38 0 0 1-.691-1.206c0-.504.258-.955.69-1.206l.364-.212a2.097 2.097 0 0 0 .759-2.854l-.691-1.206a2.066 2.066 0 0 0-2.831-.765l-.364.211c-.432.252-.95.252-1.381 0a1.381 1.381 0 0 1-.691-1.206v-.423c0-1.152-.93-2.089-2.073-2.089H11.31a2.084 2.084 0 0 0-2.072 2.09v.423c0 .503-.258.954-.69 1.206-.433.251-.95.252-1.383 0l-.363-.212a2.067 2.067 0 0 0-2.832.765l-.69 1.206c-.573 1-.234 2.277.758 2.854l.364.212c.432.251.69.702.69 1.206s-.258.955-.69 1.206l-.363.212a2.097 2.097 0 0 0-.759 2.854l.69 1.206a2.066 2.066 0 0 0 2.832.765l.363-.211c.433-.253.95-.252 1.382 0 .433.252.69.702.69 1.206v.423c0 1.152.93 2.089 2.073 2.089h1.382a2.084 2.084 0 0 0 2.073-2.09v-.423c0-.503.258-.954.69-1.206.432-.251.95-.252 1.382 0l.364.212c.989.575 2.26.232 2.83-.765l.692-1.206c.572-1 .233-2.277-.759-2.854zM12 15.295c-1.985 0-3.6-1.59-3.6-3.545 0-1.955 1.615-3.545 3.6-3.545s3.6 1.59 3.6 3.545c0 1.955-1.615 3.545-3.6 3.545z" fill="#5E515F" fill-rule="nonzero"/>
</svg>
