<svg width="200" height="200" viewBox="0 0 200 200" xmlns="http://www.w3.org/2000/svg">
    <g fill="none" fill-rule="evenodd">
        <circle fill="#FFF" cx="100" cy="100" r="100"/>
        <path d="M100 0c55.228 0 100 44.772 100 100s-44.772 100-100 100S0 155.228 0 100 44.772 0 100 0zm0 4C46.98 4 4 46.98 4 100s42.98 96 96 96 96-42.98 96-96-42.98-96-96-96z" fill="#E0E0E0" fill-rule="nonzero"/>
        <path d="M100.867 103.522c13.814 14.037 27.667 28.017 41.513 42.02.15.138.276.308.474.527-.553.63-1.336.792-2.015 1.076-8.25 3.47-16.501 6.917-24.751 10.38-.53.218-1.012.525-1.518.792-.521.308-1.098.437-1.651.631-.577.033-1.02.364-1.47.672-.506.283-1.13.323-1.565.768-1.027.437-2.055.866-3.145 1.133-1.462.59-2.995 1.06-4.386 1.82-1.723.939-3.272.834-4.963-.056-1.367-.712-2.86-1.19-4.307-1.764-1.66-.38-3.177-1.133-4.663-1.934v.009c-.632-.108-1.21-.361-1.78-.636l-.682-.334c-.228-.11-.457-.215-.69-.309-.53-.121-1.028-.3-1.447-.663-.964-.162-1.92-.356-2.616-1.157-1.264-.542-2.513-1.108-3.785-1.634-6.378-2.678-12.763-5.348-19.14-8.026-.427-.186-.83-.412-1.336-.671.34-.389.593-.704.877-.987 13.664-13.81 27.328-27.62 40.976-41.439.68-.68 1.09-1.213 2.07-.218zM149.373 58.5c6.583 8.123 10.977 17.33 13.182 27.645.079.356.205.704.308 1.052.68 2.661.956 5.38 1.067 8.098.118 2.807.063 5.623.008 8.43-.032 1.521-.245 3.018-.498 4.522l.016-.032c-.176 1.144-.202 2.313-.5 3.445l-.124.419-.05.073c-.25.456.221 1.122-.354 1.492-.719 2.548-1.438 5.105-2.15 7.661.056.623-.229 1.133-.568 1.61-2.442 5.768-5.295 11.294-9.16 16.205-.948 1.205-1.967 2.338-2.884 3.56-.672.906-1.138 1.06-2.031.137-8.559-8.737-17.173-17.434-25.77-26.14-5.28-5.34-10.535-10.703-15.854-16.01-.853-.85-.924-1.295-.023-2.2 13.284-13.374 26.53-26.788 39.782-40.21.04-.032.071-.064.11-.096.18-.182.347-.352.505-.51l.303-.303c2.082-2.057 2.327-1.754 4.685 1.152zM95.345 39.493c.023 1.489-.87 2.638-1.13 3.98-.016.51-.222.939-.601 1.279-.34.461-.514.987-.577 1.561-.225.475-.262 1.02-.556 1.459l-.101.129-.18.511c-.477 1.371-.916 2.75-1.66 4.01-2.205 5.315-4.426 10.614-6.615 15.945-10.044 24.498-20.08 49.003-30.149 73.5-.22.534-.11 1.489-1.122 1.44-.569-.614-1.233-1.132-1.643-1.893h.007c-.53-.226-.821-.663-.98-1.213-4.093-5.291-7.333-11.084-9.902-17.29-.671-.727-.861-1.633-.964-2.588.04-.097.016-.186-.055-.259-.798-1.149-1.027-2.484-1.178-3.843-.687-3.697-1.335-7.394-1.81-11.132-.466-3.608.277-6.238 3.004-8.948C57.57 77.792 75.8 59.225 94.103 40.723c.396-.413.752-.882 1.242-1.23zm8.248-3.185a5142.229 5142.229 0 0 0 19.625 8.253l19.643 8.21c.253.696-.213.955-.703 1.198-4.038 3.657-7.73 7.678-11.57 11.553-11.727 11.804-23.4 23.656-35.096 35.484a44189.94 44189.94 0 0 0-27.224 27.531c-.293.291-.538.64-.806.955-.878 1.027-1.913 1.877-2.909 2.767-.292.137-.632.226-.71.63a.8.8 0 0 1-.467.405l-.086.001h-.167c-.576-.007-1.004-.112-.506-1.004.293-.534.293-1.181.506-1.748 1.746-4.352 3.477-8.713 5.255-13.057C75.894 99.12 83.425 80.772 90.917 62.39c.185-.451.359-.908.528-1.366l.504-1.379c.339-.918.694-1.83 1.133-2.708a36.42 36.42 0 0 1 1.936-4.79c2.055-4.926 4.157-9.829 6.125-14.788.553-1.4 1.043-1.659 2.45-1.052z" fill="#4F473C"/>
    </g>
</svg>
