<svg width="200" height="200" viewBox="0 0 200 200" xmlns="http://www.w3.org/2000/svg">
    <g fill="none" fill-rule="evenodd">
        <rect fill="#FFBD1A" width="200" height="200" rx="100"/>
        <path d="M75.868 112.5c7.364 7.51 14.908 14.857 22.23 22.4 1.625 1.674 2.376 1.42 3.854-.081 7.356-7.52 14.85-14.915 22.263-22.369 1.16-1.151 1.608-1.747 3.184.057 4.164 4.768 8.866 9.07 13.462 13.658-12.899 12.882-25.675 25.642-38.444 38.402-.759.76-1.412 1.608-2.122 2.433h-.596c-.637-.743-1.225-1.527-1.91-2.212a15676.446 15676.446 0 0 0-36.87-36.819c-1.567-1.559-1.926-2.473-.105-4.163 3.927-3.633 7.69-7.462 11.356-11.38 1.486-1.576 2.294-1.364 3.698.073zM100.3 84.812l14.892 14.89-15.316 15.25-14.842-14.842L100.3 84.813zm-50.466 1.651c3.886 4.098 7.911 8.066 11.977 12 1.216 1.168 1.216 1.895 0 3.079-4.066 3.918-8.09 7.886-11.977 11.984-1.461 1.543-2.237 1.11-3.502-.155-4.376-4.417-8.883-8.735-13.332-13.079v-.595c4.45-4.344 8.956-8.654 13.332-13.079 1.265-1.265 2.04-1.698 3.502-.155zm103.842.149c4.384 4.416 8.564 9.053 13.324 13.086v.596c-4.458 4.351-8.956 8.662-13.34 13.078-1.265 1.266-2.05 1.69-3.502.155-3.886-4.098-7.911-8.065-11.969-11.992-1.216-1.176-1.192-1.91.009-3.078 3.992-3.853 7.943-7.755 11.764-11.78 1.404-1.478 2.204-1.584 3.714-.065zM100.297 33c.637.743 1.225 1.527 1.91 2.212 12.263 12.279 24.5 24.598 36.869 36.786 1.829 1.804 1.682 2.71-.09 4.368-3.919 3.64-7.682 7.47-11.364 11.347-1.29 1.355-1.968 1.315-3.25.017-7.51-7.634-15.152-15.144-22.662-22.794-1.34-1.363-2.041-1.412-3.413-.016-7.43 7.576-15.014 15.005-22.45 22.59-1.43 1.46-2.238 1.583-3.691.032a247.867 247.867 0 0 0-11.152-11.16c-1.755-1.633-1.919-2.572-.082-4.384 12.36-12.188 24.598-24.5 36.869-36.786.686-.685 1.273-1.47 1.91-2.212h.596z" fill="#FFF"/>
    </g>
</svg>
