<svg width="86" height="48" viewBox="0 0 86 48" xmlns="http://www.w3.org/2000/svg" xmlns:xlink="http://www.w3.org/1999/xlink">
    <defs>
        <path id="a" d="M0 0h9.092v13.694H0z"/>
        <path id="c" d="M0 0h17.101v19.155H0z"/>
    </defs>
    <g fill="none" fill-rule="evenodd">
        <path d="M45.554 20.151c.087-.794.314-1.37.68-2.331a23.087 23.087 0 0 1 1.607-3.157c.733-1.082 1.365-1.623 1.896-1.623.019 0 .081.009.188.026.414.163.622.472.622.928v.154c0 .601-.4 1.703-.883 2.639-.241.43-1.27 2.675-1.908 3.362-.49.527-.937.764-1.252.878-.315.114-1.06.131-.95-.876m-.88 8.75c-.338.624-.842.803-1.26.737-.154-.024-.841-.553-.027-1.554.672-.826 1.823-1.158 2.39-1.29 0 0-1.003 1.923-1.103 2.107m-10.36-14.408c-.572.711-1.143 1.412-1.677 2.092a883.237 883.237 0 0 1-3.775 3.178c-1.264 1.056-2.195 1.82-2.446 1.82-.07 0-.087-.057-.048-.18.591-1.229.788-1.856 1.311-2.982.334-.72.61-1.314.82-1.79-.464-.037-.872-.149-1.317-.304a4.795 4.795 0 0 1-1.417-.773c-.45.854-.79 1.458-1.524 3.265-.691 1.702-1.042 2.787-1.042 3.26 0 .378.033.768.226 1.12.453.756 1.192 1.108 2.09 1.108.932 0 2.546-.967 4.429-3.168a2.881 2.881 0 0 0-.056.416c-.015.16-.002.407.102.709.018.053.042.111.07.173.11.243.297.544.535.814.401.453.95.815 1.541.655.263-.123.14-.544.158-.86.025-.461.219-1.027.952-2.109.726-1.072 1.703-2.533 3.14-4.251 1.148-1.288 1.862-1.933 2.142-1.933.067.018.101.07.101.155 0 .086-.014.185-.043.296-.077.241-2.242 5.701-2.357 6.35-.118.67-.135 1.29.145 1.658.63 1.027 2.324.646 2.324.646 1.317-.428 2.112-1.113 3.296-2.639v.002c0 .36.054.708.16 1.043.347.996 1.138 1.494 2.373 1.494h.072c.714 0 1.409-.274 2.084-.824.714-.601 1.167-1.044 1.36-1.327h.015v.013c-.28.618-1.147 2.244-1.388 2.751-.676.078-2.758.632-3.94 1.528-.985.636-1.611 1.622-1.914 2.81-.329 1.287.31 2.197.656 2.515 1.348 1.448 4.214 1.119 5.594-1.074.08-.128.668-1.441 1.488-3.303l.041.004.258.024.106.01.328.037.039.004c.126.015.252.032.38.05l.019.002c.118.016.237.034.357.052l.103.017a23.317 23.317 0 0 1 .66.115c.051.009.101.02.152.03.079.014.158.03.237.047a29.898 29.898 0 0 1 .787.178 21.393 21.393 0 0 1 .803.21l.178.052.23.068.178.055.234.074.177.058.24.081.173.06.253.091.163.06c.093.034.186.07.279.106l.14.054c.14.056.28.112.42.17.147.062.294.118.44.17l.061.023a9.803 9.803 0 0 0 .9.27l.066.015c.14.033.28.064.418.09l.018.003c.136.025.27.046.403.065l.054.007c.13.018.26.03.386.041l.07.006a7.513 7.513 0 0 0 .8.017l.026-.001a6.09 6.09 0 0 0 .347-.023l.039-.004c.12-.012.238-.027.352-.046l.065-.013c.09-.016.178-.033.264-.053l.108-.029c.067-.017.134-.036.198-.056.039-.012.075-.025.112-.038a3.166 3.166 0 0 0 .435-.188l.09-.05c.053-.03.102-.062.15-.095.023-.016.048-.031.07-.047.067-.05.13-.103.188-.158a3.174 3.174 0 0 0 .536-.687 2.98 2.98 0 0 0 .295-.726c.064-.244.096-.488.106-.724a3.942 3.942 0 0 0-.008-.461 5.177 5.177 0 0 0-.182-.99c0-.001-.091-.336-.415-.34-.068-.007-.197.007-.252.057a7.326 7.326 0 0 1-.11.102l-.034.03a8.23 8.23 0 0 1-.218.186l-.028.024a5.308 5.308 0 0 1-.127.099l-.031.022a4.721 4.721 0 0 1-.44.293c-.001 0-.185.103-.201.11l-.17.085-.171.076c-.058.024-.207.08-.221.085l-.205.067a5.105 5.105 0 0 1-.401.102 28.44 28.44 0 0 1-.28.048c-.052.008-.205.026-.229.028-.082.009-.261.02-.266.02-.082.004-.54.002-.893-.024-.353-.025-1.364-.252-1.482-.285-2.39-.67-4.556-1.057-6.508-1.23 2.272-5.19 5.236-12.043 5.247-12.119.017-.12.162-.483-.245-.686-.815-.341-1.416-.53-1.84-.53h-.03c-.202 0-.38.117-.535.349-.113.193-.333.713-.66 1.556.017-.091-.002-.322-.293-.856-.963-1.211-2.303-1.156-2.91-1.074-1.172.128-2.268.721-3.358 2.164-.511.696-.98 1.508-1.404 2.435a30.758 30.758 0 0 0-1.036 2.725l-.375.431c-1.68 1.83-2.702 2.753-3.068 2.77 0 0-.185.025-.107-.207.063-.184 3.656-8.59 3.685-9.045.03-.455-.052-.572-.323-.796-.723-.48-1.295-.623-1.678-.721-.594-.153-1.67-.015-2.498.379-.982.468-2.098 1.165-3.29 2.572a13.07 13.07 0 0 0-.249.302c-.11.139-.222.277-.333.415" fill="#666"/>
        <g transform="translate(25.6 2)">
            <mask id="b" fill="#fff">
                <use xlink:href="#a"/>
            </mask>
            <path d="M.744 7.976c.245.724-.534 2.49-.542 2.527-.056.276-.11.604-.135 1.008-.004.076 0 .15.008.222.044.375.252.693.531.954.377.352.88.6 1.287.742.525.184.891.265 1.33.265l.055-.001a5.57 5.57 0 0 0 .588-.044c.19-.047.33-.092.433-.14.201-.094.268-.2.297-.345.018-.092-.11-.153-.32-.214-.292-.084-.74-.169-1.18-.338-.757-.29-1.277-.945-1.358-1.144-.048-.12-.006-.144.035-.144a.17.17 0 0 1 .054.01c.534.596 2.024.888 2.024.888l.068.015c.287.065.542.093.765.093.135 0 .257-.011.37-.027.425-.062.707-.218.868-.327.28-.191.913-1.37 1.93-1.79.489-.2.416-.986-.344-1.338a1.416 1.416 0 0 0-.602-.133c-.556 0-1.077.311-1.407.636-.217.213-.522.268-.78.268-.274 0-.493-.062-.493-.062-.859-.239-1.05-1.064-1.05-1.064-.28-.894.313-1.607.587-1.795.094-.065.706-.46 1.35-.965.017.232.178.425.178.425s-.012-.012.25.376l.05.073c.332.493.04.935.328 1.226a.368.368 0 0 0 .092.066c.033.017.069.03.107.038.39.124 1.059-.247 1.69.089.092.05.183.116.272.2.244.232.413.522.666.522h.005a.086.086 0 0 0 .047-.018c.198-.135.293-1.097.294-1.294V7.418c-.034-1.033-.868-1.646-.839-1.34.032.328.083 1.449-.175 1.231l-.02-.097c-.027-.283-.126-1.19-.41-1.668-.218-.364-.812-.53-1.078-.526-.254.005-.508.04-.723.09.247-.233.468-.47.626-.697.617-.882.963-1.917.977-2.41C7.488.659 6.677.002 6.07 0a.681.681 0 0 0-.36.095C5.278.362 5.024 1.46 4.694 2.12c-.33.66-3.48 3.08-3.48 3.08C.4 5.73.082 6.418 0 7.093c.34.165.603.47.744.883" fill="#666" mask="url(#b)"/>
        </g>
        <g transform="translate(8 9.63)">
            <mask id="d" fill="#fff">
                <use xlink:href="#c"/>
            </mask>
            <path d="M12.979 11.412c.065-.044.127-.091.188-.14.829-.659 1.227-1.64 1.055-2.081a.597.597 0 0 0-.204-.28.613.613 0 0 0-.367-.103c-.221 0-.501.072-.847.2-.317.116-.78.17-1.356.17-.828 0-1.89-.111-3.083-.303-.044-.009 1.707-5.24 1.707-5.24 1.04.203 2.228.346 3.268.346.928 0 1.739-.114 2.222-.4.385-.227.724-.569.986-.943.201-.287.355-.594.449-.881.108-.331.138-.638.062-.861-.062-.182-.164-.307-.313-.356a.501.501 0 0 0-.159-.025.918.918 0 0 0-.318.067c-.05.02-.101.04-.156.068-.205.102-1.311.449-2.852.449-2.198-.082-4.321-.54-5.237-.695-2.1-.356-2.936-.41-3.586-.403-.65.006-2.035.131-2.999.965-.8.584-.954 1.562-.97 1.999-.015.436.046.653.137.927.29.627.586.94.886.94.155 0 .268-.107.341-.321.528-.936 1.846-1.405 3.955-1.405 0 0 .73.02 1 .107-.308.85-.664 1.899-1.137 3.333-.235.738-.456 1.428-.67 2.078-.2.054-1.084.234-1.643 1.028-.31.407-.646 1.252-.374 1.915.152.372.68.492.861.403a47.53 47.53 0 0 1-.68 1.739c-.786 1.888-1.98 2.915-2.283 3.058-.298.14-.876.193-.858.491 0 0-.07.584.411 1.076.556.567 1.22.82 1.865.82l.041.001c.211 0 1.188-.055 2.035-1.028 1.018-1.27 1.941-2.828 3.16-6.452.035 0 1.427.31 2.884.31.953 0 1.934-.133 2.579-.573" fill="#666" mask="url(#d)"/>
        </g>
        <path d="M58.74 16.058c1.314-2.65 2.515-3.8 3.154-3.661a.654.654 0 0 1 .563.612s0 .802-.403 1.752a5.46 5.46 0 0 1-.667 1.185c-.817 1.056-1.77 1.58-2.14 1.64-.37.059-.936.083-1.163-.106.072-.171.464-.97.656-1.422m18.826-4.105c-.776-.48-1.376-.721-1.8-.721-1.458 0-3.469 1.558-6.034 4.676.882-1.93 1.446-3.153 1.57-3.48.157-.408-.19-.592-.648-.75-.844-.316-1.356-.474-1.588-.454-.367.03-.533.274-.76.652-.65 1.206-1.446 2.96-2.386 5.26l-.45 1.134c-.394.317-.794.635-1.155.938-1.802 1.513-4.34 2.432-5.363 2.432 0 0-.43-.026-.605-.077-.518-.163-1.047-.621-1.047-1.274 0-.524 0-1.079.43-1.942 0 0 .71.494 1.949.48 1.239-.012 1.62-.231 2.282-.575.3-.163.646-.438 1.04-.825 1.116-1.288 1.674-2.464 1.674-3.53v-.115c0-.327-.064-.632-.155-.928-.3-.974-1.414-2.153-3.828-2.028a3.828 3.828 0 0 0-1.6.457c-.28.103-1.797 1.053-2.679 2.396-.641.928-1.264 2.067-1.802 3.45-.527 1.366-.67 2.411-.67 2.978v.245c0 .42.099.846.295 1.275.32.747.879 1.284 1.675 1.61.414.198 1.148.543 2.173.543.811 0 1.963 0 4.236-1.483.448-.292 1.4-.952 2.191-1.588-.148.46-.223.801-.223 1.022 0 .18-.038.287.109.708.296.73.899 1.554 2.172 1.599.507.017.336-.389.3-.676-.034-.288.225-1.177 1.018-2.25.787-1.065 1.825-2.533 3.366-4.25 1.23-1.289 1.995-1.933 2.295-1.933.073.017.109.069.109.154 0 .087-.016.185-.047.297-.038.112-.222.553-.55 1.318-.146.34.13.51.523.675.852.355 1.929.928 2.14.415.339-.691.919-2.07 1.33-2.86.632-1.201.947-1.957.947-2.266v-.052c0-.215-.145-.434-.434-.657M51.572 38.957a12.513 12.513 0 0 1-1.137 2.184 6.75 6.75 0 0 1-1.137 1.347c-1.052.987-1.543.796-1.543.796-.097-.008-.527-.129-.487-.704.052-.747.356-1.79 1.07-3.123 1.272-2.204 2.323-3.306 3.153-3.306.388 0 .582.252.582.755 0 .51-.167 1.194-.5 2.051m-10.951-1.745c0 .85-.825 2.207-1.855 3.71-.389.566-.705.962-1.121 1.283-.891.735-1.365.267-1.365.267-.145-.075-.273-.337-.273-.561.004-.303.186-1.07.566-1.74a15.877 15.877 0 0 1 1.638-2.673c.64-.762 1.182-1.143 1.624-1.143 0 0 .167.004.23.01.626.158.556.847.556.847m21.546-2.361c-.963-.142-2.698-.218-4.445.867-.984.612-1.397 1.426-1.514 2.092-.188 1.074.471 2.057 1.785 2.578 2.628 1.043 1.604 1.824 1.302 2.017-.61.39-1.731.573-2.928.182-.825-.27-1.679-1.183-2.126-2.377.72-1.337 1.08-2.456 1.08-3.355a3.012 3.012 0 0 0-.108-.704c-.1-.306-.334-.578-.704-.816-.64-.354-1.29-.53-1.95-.53h-.135c-.73 0-1.384.35-2.304 1.05 0 0 2.102-4.477 2.178-4.696.098-.282.23-.674-.29-.806-1.454-.37-1.62-.417-1.986-.321-.188.05-.388.158-.596.637-.826 1.902-2.719 5.788-4.027 8.707-.076.152-.146.299-.213.443-.345.353-.723.731-1.14 1.138-1.571 1.436-2.528 2.17-2.647 2.175-.102.004-.159-.057-.088-.21.106-.231 3.467-7.451 3.467-7.451.06-.125.078-.338-.237-.515-.75-.26-1.588-.573-1.895-.449-.17.068-.396.351-.514.552-.23.34-.46.893-.68 1.37a1.414 1.414 0 0 0-.358-.976c-.662-.641-1.588-.871-2.616-.722-1.11.161-1.882.556-2.866 1.563-.577.64-1.07 1.33-1.475 2.071-.73 1.446-1.192 2.621-1.39 3.53-.522.185-1.03.322-1.665.315-.635-.008-1.88-.507-2.592-.702a23.03 23.03 0 0 0-1.124-.356c1.393-3.603 4.405-11.084 4.663-11.95.244-.442.103-1.004-.91-.995-3.25.027-3.588-.24-5.312-.58-.673-.132-3.322-.933-4.395-.933 0 0-2.317-.18-3.509.768-.802.576-1.111 1.118-1.253 2.001-.2 1.244.693 1.89 1.137 2.018.343.098.54-.338.616-.567.561-.996 2.386-1.283 3.952-1.271 1.39.01 3.778.435 5.745.704-.98 2.425-3.076 7.62-4.18 10.415a3.525 3.525 0 0 0-1.205.416c-.637.442-.984.996-1.04 1.662l-.015.164a1.58 1.58 0 0 0 .03.538c.115.622.672.76 1.067.561.396-.198 1.801-.936 3.098-.774 1.297.161 3.51 1.079 4.896 1.244.684.05 1.44-.225 2.156-.672.372.579.992.884 1.862.917.051.001.1.007.153.007h.203c.65 0 1.317-.238 2.003-.715.56-.421.988-.789 1.286-1.102l-.027.194c0 .3.102.702.338 1.035.614.87 1.947.593 2.124.57.355-.075 1.468-.554 2.668-1.676.31-.3.61-.609.903-.921-.004.056-.01.114-.01.166 0 .666.419 1.647.996 2.082.795.545 1.763.626 2.774.475 1.99-.297 3.622-1.119 5.138-3.18l.005-.008c.045.142.096.265.151.36.855 1.457 1.775 2.114 2.853 2.487 3.145 1.086 5.007-.211 6.052-1.693 0 0 1.716-2.318-1.628-3.722-1.176-.494-1.655-.721-1.844-1.045-.236-.405.245-.992.73-1.307.78-.506 3.03-.876 2.285.662a3.8 3.8 0 0 0-.217.57c-.053.175.028.394.084.416.446.179 1.489.441 1.997.577.237.064.266-.127.302-.207.344-.767 1.911-3.428-1.92-3.992" fill="#666"/>
    </g>
</svg>
