<svg width="40" height="20" viewBox="0 0 40 20" xmlns="http://www.w3.org/2000/svg">
    <path d="M25.158 20H6.094C2.699 20 .435 18.217.087 15.217v-.043C.044 14.652 0 14.13 0 13.609V6.304c0-.608.044-1.217.13-1.826l.044-.26C.74 1.607 3.004 0 6.094 0H33.95c3.09 0 5.354 1.609 5.876 4.217l.043.261c.087.609.131 1.218.131 1.826v7.305c0 .521-.044 1.043-.087 1.565v.043C39.565 18.174 37.345 20 33.95 20H31.774a.297.297 0 0 1-.305-.304v-1.13c0-.175.13-.305.305-.305h1.698c3.002 0 4.743-1.826 4.743-4.565V6.304c0-2.739-1.697-4.478-4.744-4.478H6.572c-3.046-.043-4.744 1.74-4.744 4.478v7.392c0 2.695 1.741 4.565 4.744 4.565h18.194V7.87c0-.174.13-.305.305-.305h1.175c.174 0 .305.13.305.305v11.826c0 .174-.131.304-.305.304h-1.088zm-6.616-5.043c-1.132 0-1.872-.827-1.872-2V5.304c0-.174.13-.304.305-.304h1.175c.174 0 .305.13.305.304v8h.566c.087 0 .174.044.217.087.044.044.087.13.087.218v1c0 .174-.13.304-.304.304l-.48.044zm4.048 0c-1.132 0-1.872-.783-1.872-2V8.478c0-.174.13-.304.305-.304h1.175c.174 0 .305.13.305.304v4.826h.566c.087 0 .174.044.217.087l.087.087c0 .044.044.087.044.13v1c0 .175-.13.305-.305.305l-.522.044zm-7.574-.044h-1.349c-.043 0-.087 0-.13-.043-.044 0-.044-.044-.088-.044l-4.135-4.565a1.257 1.257 0 0 1 .088-1.652l4.09-3.479.088-.087h1.654s.043 0 .043.044l.044.043v.044c0 .043.044.087.044.087v.174c0 .043-.044.087-.044.087l-4.353 3.87 4.397 5a.33.33 0 0 1 .087.173v.174c0 .044-.044.044-.044.087l-.043.044-.044.043h-.304zm-8.661-.174c0-.043-.044-.087-.044-.13V5.304c0-.043 0-.087.044-.13 0-.044.043-.044.043-.087l.044-.044S6.485 5 6.529 5h.043c.044 0 .087 0 .13-.043h1.176c.174 0 .305.13.305.304v9.304c0 .174-.13.305-.305.305H6.703c-.174.043-.305-.044-.348-.13zm23.286-.782h-1.915a.297.297 0 0 1-.305-.305v-1.261c0-.043.044-.043.044-.087.043-.043.043-.043.087-.043H30.38c1.088 0 1.61-.478 1.61-1.435v-.043c0-.913-.522-1.392-1.61-1.392h-2.699c-.043 0-.087 0-.13-.043a.34.34 0 0 1-.174-.174c0-.044-.044-.087-.044-.13V7.912c0-.087.044-.174.087-.217a.333.333 0 0 1 .218-.087h2.872c1.698 0 2.873.956 3.047 2.478.087.565.044 1.087-.043 1.652v.087C33.254 13.174 32.122 14 30.555 14l-.914-.043zm-7.443-7.218h-1.175a.327.327 0 0 1-.305-.217c0-.044 0-.087-.043-.087v-1.13c0-.175.13-.305.304-.305h1.219c.13 0 .261.087.305.174 0 .043.043.087.043.13v1.13c0 .044 0 .088-.043.131-.087.13-.174.174-.305.174z" fill="#FFF" fill-rule="nonzero"/>
</svg>
