<svg width="69" height="24" viewBox="0 0 69 24" xmlns="http://www.w3.org/2000/svg" xmlns:xlink="http://www.w3.org/1999/xlink">
    <defs>
        <path id="a" d="M0 0h9.399v10.914H0z"/>
    </defs>
    <g fill="none" fill-rule="evenodd">
        <path d="M16.989 11.605c-.593.532-.967 1.244-1.124 2.135h6.507c-.117-.891-.443-1.603-.977-2.135-.534-.532-1.23-.798-2.09-.798-.952 0-1.724.266-2.316.798m6.927 3.482a.882.882 0 0 1-.645.25h-7.425c.143.93.557 1.682 1.24 2.254.684.572 1.521.858 2.512.858.39 0 .797-.073 1.22-.22a3.614 3.614 0 0 0 1.046-.538 1 1 0 0 1 .645-.22c.247 0 .443.067.586.2.235.2.352.425.352.678 0 .24-.104.439-.313.599-.443.359-.993.651-1.65.877a5.794 5.794 0 0 1-1.886.34c-1.069 0-2.026-.236-2.873-.709a5.08 5.08 0 0 1-1.983-1.965c-.476-.838-.714-1.789-.714-2.853 0-1.064.225-2.019.675-2.864A4.933 4.933 0 0 1 16.579 9.8c.8-.472 1.71-.708 2.725-.708 1.003 0 1.87.226 2.6.678a4.444 4.444 0 0 1 1.68 1.896c.39.811.586 1.742.586 2.793a.845.845 0 0 1-.254.629M30.287 7.076c-.443.492-.664 1.144-.664 1.955v.539h1.993c.273 0 .495.08.664.24.17.159.254.372.254.638a.79.79 0 0 1-.254.598c-.17.16-.39.24-.664.24h-1.993v7.781c0 .306-.092.552-.274.739-.183.186-.437.279-.762.279a.926.926 0 0 1-.674-.28c-.19-.186-.284-.432-.284-.738v-7.781h-.84c-.273 0-.495-.08-.664-.24a.788.788 0 0 1-.254-.598c0-.266.084-.48.254-.639.169-.16.39-.24.664-.24h.84V9.23c0-.944.186-1.772.557-2.484A4.038 4.038 0 0 1 29.75 5.09c.67-.392 1.436-.588 2.296-.588.286 0 .524.086.713.259a.855.855 0 0 1 .283.658.854.854 0 0 1-.283.659c-.19.173-.427.26-.713.26-.73 0-1.316.246-1.76.738M54.811 19.796a.998.998 0 0 1-.283-.729v-8.879c0-.306.094-.552.283-.738a.974.974 0 0 1 .714-.28c.299 0 .54.094.722.28.183.186.274.432.274.738v8.88c0 .292-.091.535-.274.728-.182.193-.423.289-.722.289a.956.956 0 0 1-.714-.29" fill="#404041"/>
        <g transform="translate(59.904 9.17)">
            <mask id="b" fill="#fff">
                <use xlink:href="#a"/>
            </mask>
            <path d="M9.399 10.076c0 .24-.082.44-.244.599a.869.869 0 0 1-.635.24c-.313 0-.547-.107-.704-.32L4.71 6.804l-2.95 3.791a.922.922 0 0 1-.704.32c-.26 0-.466-.08-.615-.24a.84.84 0 0 1-.225-.599c0-.266.09-.512.273-.738l3.03-3.87L.292 1.575C.098 1.336 0 1.084 0 .818 0 .592.075.4.225.24.375.08.586 0 .86 0c.312 0 .56.113.742.34l3.205 3.91L7.679.34c.17-.227.41-.34.723-.34.26 0 .466.083.616.25.15.166.225.369.225.608 0 .293-.092.559-.274.798l-2.95 3.93 3.106 3.792c.183.2.274.432.274.698" fill="#404041" mask="url(#b)"/>
        </g>
        <path d="M35.902 19.796a.998.998 0 0 1-.283-.729v-8.879c0-.306.094-.552.283-.738a.974.974 0 0 1 .714-.28c.3 0 .54.094.723.28.182.186.273.432.273.738v8.88c0 .292-.091.535-.273.728-.183.193-.424.289-.723.289a.956.956 0 0 1-.714-.29M46.04 9.1a5.019 5.019 0 0 0-5.015 5.162 8.202 8.202 0 0 0-.003.176v4.809a.968.968 0 0 0 .997.997c.3 0 .54-.095.723-.284a.985.985 0 0 0 .274-.71V14.438c0-1.055.283-1.853.85-2.394.548-.524 1.272-.793 2.169-.81.896.017 1.62.286 2.169.81.566.54.85 1.339.85 2.394v4.809a.967.967 0 0 0 .996.997.967.967 0 0 0 .997-.997v-4.788a5.019 5.019 0 0 0-5.006-5.36M5.317 18.091c-1.87 0-3.392-1.554-3.392-3.463 0-1.91 1.522-3.464 3.392-3.464 1.87 0 3.392 1.554 3.392 3.464S7.187 18.09 5.317 18.09m5.298-3.006a5.586 5.586 0 0 0 0-.909V5.464a.954.954 0 0 0-.944-.964.954.954 0 0 0-.944.964v5.002a5.228 5.228 0 0 0-3.41-1.267C2.385 9.199 0 11.634 0 14.628c0 2.993 2.385 5.429 5.317 5.429 2.732 0 4.99-2.116 5.284-4.828a.99.99 0 0 0 .014-.144" fill="#404041"/>
    </g>
</svg>
