<svg width="24" height="24" viewBox="0 0 24 24" xmlns="http://www.w3.org/2000/svg">
    <g fill-rule="nonzero" fill="none">
        <path d="M4.282 12.71a6.013 6.013 0 0 0 1.689.938l.032.117a6.266 6.266 0 0 0 2.996 3.719v.016l1.001-1v3H7l.914-.913a7.749 7.749 0 0 1-3.632-5.876zM8 3a5 5 0 1 1 0 10A5 5 0 0 1 8 3zm9 1.5-.914.914a7.749 7.749 0 0 1 3.632 5.876 6.004 6.004 0 0 0-1.688-.938A6.26 6.26 0 0 0 15 6.516V6.5l-1 1v-3h3zM5.854 5.854a.5.5 0 0 0-.058.637l.058.07.398.398a1.99 1.99 0 0 0-.277 1.016c0 .309.07.601.195.863l.081.152-.397.4a.5.5 0 0 0 .637.764l.07-.058.398-.398a1.99 1.99 0 0 0 1.016.277c.309 0 .601-.07.863-.195l.152-.082.4.398a.5.5 0 0 0 .764-.638l-.058-.069-.398-.399a1.99 1.99 0 0 0 .277-1.015c0-.31-.07-.602-.195-.863l-.082-.153.398-.398a.5.5 0 0 0-.638-.765l-.069.058-.399.397a1.99 1.99 0 0 0-1.015-.276c-.31 0-.602.07-.863.195l-.153.082-.398-.398a.5.5 0 0 0-.707 0zm2.12 1.12a1 1 0 1 1 0 2 1 1 0 0 1 0-2z" fill="#999"/>
        <path d="M16 11a5 5 0 1 1 0 10 5 5 0 0 1 0-10zm-1.44 2.854a.5.5 0 1 0-.706.707l.398.398a1.99 1.99 0 0 0-.277 1.016c0 .37.1.718.276 1.015l-.397.4a.5.5 0 1 0 .707.706l.398-.398a1.99 1.99 0 0 0 1.016.277c.37 0 .718-.101 1.015-.277l.4.398a.5.5 0 0 0 .706-.707l-.398-.399a1.99 1.99 0 0 0 .277-1.015 1.99 1.99 0 0 0-.277-1.016l.398-.398a.5.5 0 0 0-.707-.707l-.399.397a1.99 1.99 0 0 0-1.015-.276 1.99 1.99 0 0 0-1.016.277zm1.415 1.12a1 1 0 1 1 0 2 1 1 0 0 1 0-2z" fill="#666"/>
    </g>
</svg>
