<svg width="22" height="22" viewBox="0 0 22 22" xmlns="http://www.w3.org/2000/svg">
    <g fill="none" fill-rule="evenodd">
        <circle fill="#FFBD1A" cx="11" cy="11" r="10.083"/>
        <path d="M8.82 12.129c.666.678 1.347 1.341 2.008 2.022.147.152.215.129.348-.007l1.003-1.012 1.008-1.008c.104-.104.145-.158.287.005.376.43.8.82 1.216 1.234l-3.472 3.467c-.068.069-.127.146-.191.22h-.054c-.058-.067-.11-.138-.173-.2-1.108-1.11-2.217-2.218-3.329-3.324-.141-.141-.174-.224-.01-.376.355-.328.695-.674 1.026-1.028.134-.142.207-.123.334.007zm2.207-2.5 1.345 1.344-1.383 1.377-1.34-1.34 1.378-1.381zm-4.557.149c.351.37.714.728 1.082 1.083.11.106.11.171 0 .278-.368.354-.731.712-1.082 1.082-.132.14-.202.1-.316-.014-.395-.398-.802-.788-1.204-1.18v-.054c.402-.392.809-.782 1.204-1.181.114-.115.184-.154.316-.014zm9.377.013c.396.399.773.818 1.203 1.182v.054c-.403.393-.809.782-1.205 1.18-.114.115-.185.153-.316.015-.35-.37-.714-.729-1.08-1.083-.11-.106-.108-.173 0-.278.36-.348.717-.7 1.062-1.064.127-.133.2-.143.336-.006zm-4.82-4.841c.057.067.11.138.172.2 1.108 1.108 2.213 2.22 3.33 3.321.165.163.151.245-.009.395-.353.329-.693.674-1.026 1.025-.116.122-.177.118-.293.001-.678-.69-1.368-1.367-2.047-2.058-.12-.123-.184-.128-.308-.002-.67.684-1.355 1.355-2.027 2.04-.13.132-.202.143-.333.003-.325-.346-.66-.683-1.007-1.008-.159-.147-.174-.232-.008-.396 1.116-1.1 2.222-2.212 3.33-3.321.061-.062.115-.133.172-.2h.054z" fill="#FFF"/>
    </g>
</svg>
