<svg width="24" height="24" viewBox="0 0 24 24" xmlns="http://www.w3.org/2000/svg">
    <path d="M12 3c5.247 0 9.5 3.467 9.5 7.745 0 4.277-4.253 7.745-9.5 7.745-.603 0-1.192-.047-1.763-.134-1.053.738-3.493 2.449-3.656 2.56-.209.144-.527.151-.398-.381.104-.43.625-2.436.824-3.201-2.705-1.365-4.507-3.805-4.507-6.59C2.5 6.468 6.753 3 12 3zm-1.885 5.395c-.338 0-.617.213-.673.492a.67.67 0 0 0-.026.064l-1.362 3.765a.478.478 0 0 0 .28.604.456.456 0 0 0 .587-.29l.235-.693h1.895l.235.693a.456.456 0 0 0 .586.29.478.478 0 0 0 .281-.604l-1.385-3.905-.004-.005c-.089-.238-.344-.411-.649-.411zm5.967 0a.52.52 0 0 0-.513.529v3.894c0 .293.23.529.513.529a.52.52 0 0 0 .512-.529v-1.201l.293-.302 1.362 1.843c.151.209.44.251.641.094a.483.483 0 0 0 .092-.662l-1.44-1.95 1.3-1.342a.476.476 0 0 0 0-.658.442.442 0 0 0-.637 0l-1.61 1.66V8.925a.52.52 0 0 0-.513-.529zm-7.905.069H5.4a.48.48 0 0 0-.473.487c0 .27.212.487.473.487h.903v3.432c0 .125.05.248.136.336a.454.454 0 0 0 .325.14h.1c.122 0 .24-.051.325-.14a.485.485 0 0 0 .136-.336V9.438h.853a.48.48 0 0 0 .473-.487.48.48 0 0 0-.473-.487zm4.872-.069a.52.52 0 0 0-.512.529v3.778c0 .03.003.057.008.085a.435.435 0 0 0 .42.527h1.888a.435.435 0 0 0 .43-.443.435.435 0 0 0-.43-.442h-1.291V8.924a.52.52 0 0 0-.513-.529zm-2.956 1.183.021.002.636 1.872H9.457l.636-1.874z" fill="#999" fill-rule="evenodd"/>
</svg>
