<svg width="22" height="22" viewBox="0 0 22 22" xmlns="http://www.w3.org/2000/svg">
    <g fill="none" fill-rule="evenodd">
        <circle stroke-opacity=".505" stroke="#E0E0E0" fill="#FFF" cx="11" cy="11" r="9.583"/>
        <path d="M11.075 11.305c1.197 1.217 2.398 2.428 3.597 3.641.013.012.024.027.041.046-.047.055-.115.069-.174.093l-2.145.9c-.046.019-.088.045-.131.068-.046.027-.096.038-.144.055-.05.003-.088.032-.127.058-.044.025-.098.028-.136.067a1.784 1.784 0 0 1-.272.098c-.127.051-.26.092-.38.158a.419.419 0 0 1-.43-.005c-.119-.062-.248-.103-.373-.153a1.624 1.624 0 0 1-.404-.168v.001l-.095-.028-.179-.083a.278.278 0 0 1-.125-.057c-.084-.014-.166-.03-.227-.1l-.328-.142-1.658-.695c-.037-.017-.072-.036-.116-.059.03-.033.051-.06.076-.085 1.184-1.197 2.368-2.393 3.55-3.59.06-.06.095-.106.18-.02zm4.203-3.901c.57.704.952 1.502 1.143 2.395.006.031.017.061.026.092.06.23.083.466.093.701.01.244.005.488 0 .73a2.7 2.7 0 0 1-.043.393l.002-.003c-.017.111-.018.226-.054.335-.033.037.018.1-.035.135l-.187.664c.005.054-.02.098-.049.14-.212.5-.459.978-.794 1.404-.082.104-.17.202-.25.308-.058.079-.098.092-.176.012-.741-.757-1.488-1.51-2.233-2.265-.457-.463-.913-.927-1.373-1.387-.074-.074-.08-.112-.002-.19 1.15-1.16 2.298-2.322 3.447-3.485l.01-.009c.247-.251.247-.251.475.03zm-4.681-1.647c.002.129-.076.228-.098.345a.15.15 0 0 1-.052.11.273.273 0 0 0-.05.136c-.022.046-.024.1-.06.14l.003-.003c-.048.133-.087.27-.16.392-.19.46-.383.92-.573 1.382-.87 2.123-1.74 4.246-2.612 6.369-.02.046-.01.129-.098.125-.049-.054-.107-.098-.142-.164-.045-.02-.07-.058-.084-.105a6.478 6.478 0 0 1-.858-1.499.37.37 0 0 1-.084-.224c.003-.008.001-.016-.005-.022a.696.696 0 0 1-.102-.333c-.06-.32-.116-.641-.157-.965-.04-.313.024-.54.26-.775 1.598-1.59 3.178-3.2 4.764-4.803.034-.035.065-.076.108-.106zm.714-.276c1.133.48 2.268.952 3.403 1.426.022.06-.018.083-.06.104-.35.317-.67.666-1.003 1.001-1.017 1.023-2.028 2.05-3.042 3.075L8.25 13.473c-.025.025-.046.055-.07.083-.076.089-.165.162-.252.24-.025.011-.054.019-.061.054a.07.07 0 0 1-.04.035c-.06 0-.116.001-.066-.087.025-.046.025-.102.043-.151.152-.377.302-.755.456-1.132.651-1.591 1.304-3.181 1.953-4.774.064-.156.112-.32.188-.472.045-.143.102-.282.167-.415.178-.427.36-.852.531-1.282.048-.121.09-.144.212-.091z" fill="#4F473C"/>
    </g>
</svg>
