<svg width="24" height="24" viewBox="0 0 24 24" xmlns="http://www.w3.org/2000/svg">
    <path d="M20.595 12.656a.62.62 0 0 0-.62-.586.583.583 0 0 0-.563.593.58.58 0 0 0 .613.576.579.579 0 0 0 .57-.583m-9.68 5.312c.32-.001.613-.297.6-.607-.012-.298-.295-.56-.607-.56a.578.578 0 0 0-.592.564.614.614 0 0 0 .6.603m-7.898-6.095c.07.958.418 1.689 1.313 2.136 1.57.782 3.117 1.609 4.667 2.426.197.104.3.138.459-.087.652-.93 1.928-1.027 2.73-.21.19.193.304.179.514.066a703.538 703.538 0 0 1 5.29-2.81c.208-.11.31-.213.267-.474a1.746 1.746 0 0 1 1.22-1.951c.838-.25 1.779.15 2.135.91a1.801 1.801 0 0 1-.62 2.262c-.614.409-1.255.436-1.896.069-.171-.098-.296-.103-.466-.01a1543.68 1543.68 0 0 1-5.664 3.053c-.173.093-.268.2-.305.409-.144.828-.795 1.424-1.58 1.48-.858.064-1.598-.408-1.862-1.225a.692.692 0 0 0-.385-.442c-1.736-.886-3.47-1.778-5.204-2.673-1.345-.693-2.026-2.705-1.391-4.078.187-.404.484-.692.88-.89 2.029-1.008 4.055-2.02 6.084-3.026 1.09-.542 2.19-1.066 3.277-1.615.536-.271 1.04-.245 1.572.009 2.186 1.047 4.376 2.08 6.566 3.116.192.09.405.17.405.417 0 .239-.207.339-.394.436l-6.007 3.109c-1.092.565-2.195 1.114-3.276 1.702-.496.27-.925.29-1.44.013-1.928-1.042-3.881-2.043-5.823-3.064-.522-.274-.89-.118-1.017.459-.036.164-.035.337-.05.483" fill="#999" fill-rule="evenodd"/>
</svg>
