<svg width="24" height="24" viewBox="0 0 24 24" xmlns="http://www.w3.org/2000/svg">
    <path d="M17.447 17.6c0 .726-.54 1.326-1.23 1.394l-.131.006h-1.362c-.707 0-1.29-.556-1.356-1.266l-.006-.134v-3.4a.695.695 0 0 0-.58-.693l-.101-.008h-1.362a.688.688 0 0 0-.674.597l-.007.103v3.4c0 .727-.541 1.327-1.23 1.395L9.275 19H7.914c-.706 0-1.29-.556-1.355-1.266l-.007-.134v-4.876a1 1 0 0 1-1.11-.068l-.093-.08-.05-.05-.017-.017a1 1 0 0 1-.068-1.32l.084-.094 5.977-5.838a.996.996 0 0 1 .64-.283h.17a.996.996 0 0 1 .64.283l5.977 5.838a1 1 0 0 1 0 1.431l-.05.05a1 1 0 0 1-1.204.148V17.6z" fill="#FFF" fill-rule="evenodd"/>
</svg>
